# xmcd CD database file
#
# Track frame offsets:
#	150
#	26685
#	53648
#	86193
#	111521
#	138153
#	166505
#	213852
#	261601
#	282505
#
# Disc length: 4092 seconds
#
# Revision: 0
# Processed by: cddbd v1.5.1PL2 Copyright (c) Steve Scherf et al.
# Submitted via: CDex 1.51
#
DISCID=900ffa0a
DTITLE=Dee Alexander - "Live" at the Hothouse
DYEAR=2001
DGENRE=Jazz
TTITLE0=Softly, As In A Morning Sunrise
TTITLE1=Surrender Your Love
TTITLE2=Body and Soul
TTITLE3=Stolen Moments
TTITLE4=Straight No Chaser
TTITLE5=Love For Sale
TTITLE6=All Blues
TTITLE7=Round Midnight
TTITLE8=Four
TTITLE9=Joy You Bring (Bonus Track)
EXTD=YEAR: 2001
EXTT0=
EXTT1=
EXTT2=
EXTT3=
EXTT4=
EXTT5=
EXTT6=
EXTT7=
EXTT8=
EXTT9=
PLAYORDER=
